<svg width="1386" height="1386" viewBox="0 0 1386 1386" fill="none" xmlns="http://www.w3.org/2000/svg">
<path d="M815.465 516L813.465 530L762.465 547L722.465 1017L758.465 1035L757.465 1049H616.465C609.132 1049 602.465 1046.33 596.465 1041C591.132 1035 589.132 1028.33 590.465 1021L631.465 547H582.465L585.465 516H634.465L643.465 408L778.465 375L765.465 516H815.465Z" fill="#2B9348"/>
<path d="M914.242 944.822C914.242 944.822 886.199 975.905 884.506 999.973C882.813 1024.04 906.362 1056.81 906.362 1056.81C906.362 1056.81 876.187 1030.02 852.073 1029.23C827.959 1028.44 794.161 1053.15 794.161 1053.15C794.161 1053.15 822.203 1022.06 823.897 997.996C825.59 973.929 802.04 941.163 802.04 941.163C802.04 941.163 832.216 967.952 856.33 968.738C880.443 969.525 914.242 944.822 914.242 944.822Z" fill="#2B9348"/>
</svg>
